HIERARCHY
ROOT Hips
{
  OFFSET -102.467 93.6631 130.069
  CHANNELS 6 Xposition Yposition Zposition Zrotation Xrotation Yrotation
  JOINT LeftUpLeg
  {
    OFFSET 8.64259 1.95398 -2.38835
    CHANNELS 3 Zrotation Xrotation Yrotation
    JOINT LeftLeg
    {
      OFFSET 43.7702 0 0
      CHANNELS 3 Zrotation Xrotation Yrotation
      JOINT LeftFoot
      {
        OFFSET 40.6238 0 0
        CHANNELS 3 Zrotation Xrotation Yrotation
        JOINT LeftToeBase
        {
          OFFSET 12.7242 0 0
          CHANNELS 3 Zrotation Xrotation Yrotation
          End Site
          {
            OFFSET 0 0 0
          }
        }
      }
    }
  }
  JOINT RightUpLeg
  {
    OFFSET -8.2249 1.95398 -2.59336
    CHANNELS 3 Zrotation Xrotation Yrotation
    JOINT RightLeg
    {
      OFFSET 43.5653 0 0
      CHANNELS 3 Zrotation Xrotation Yrotation
      JOINT RightFoot
      {
        OFFSET 40.6238 0 0
        CHANNELS 3 Zrotation Xrotation Yrotation
        JOINT RightToeBase
        {
          OFFSET 12.7242 0 0
          CHANNELS 3 Zrotation Xrotation Yrotation
          End Site
          {
            OFFSET 0 0 0
          }
        }
      }
    }
  }
  JOINT Spine
  {
    OFFSET 0.165834 0.87714 6.61349
    CHANNELS 3 Zrotation Xrotation Yrotation
    JOINT Spine1
    {
      OFFSET 7.38963 1.71661e-005 0
      CHANNELS 3 Zrotation Xrotation Yrotation
      JOINT Spine2
      {
        OFFSET 11.9445 1.14441e-005 0
        CHANNELS 3 Zrotation Xrotation Yrotation
        JOINT Spine3
        {
          OFFSET 14.7254 4.19617e-005 0
          CHANNELS 3 Zrotation Xrotation Yrotation
          JOINT Spine4
          {
            OFFSET 10.9679 0 0
            CHANNELS 3 Zrotation Xrotation Yrotation
            JOINT RightShoulder
            {
              OFFSET 2.46616 -1.6653 3.69651
              CHANNELS 3 Zrotation Xrotation Yrotation
              JOINT RightArm
              {
                OFFSET 13.0012 0 0
                CHANNELS 3 Zrotation Xrotation Yrotation
                JOINT RightForeArm
                {
                  OFFSET 28.7848 1.52588e-005 0
                  CHANNELS 3 Zrotation Xrotation Yrotation
                  JOINT RightHand
                  {
                    OFFSET 26.5688 1.52588e-005 0
                    CHANNELS 3 Zrotation Xrotation Yrotation
                    End Site
                    {
                      OFFSET 0 0 0
                    }
                  }
                }
              }
            }
            JOINT LeftShoulder
            {
              OFFSET 2.38034 -1.29275 -3.7523
              CHANNELS 3 Zrotation Xrotation Yrotation
              JOINT LeftArm
              {
                OFFSET 16.3182 6.10351e-005 0
                CHANNELS 3 Zrotation Xrotation Yrotation
                JOINT LeftForeArm
                {
                  OFFSET 27.0901 0 0
                  CHANNELS 3 Zrotation Xrotation Yrotation
                  JOINT LeftHand
                  {
                    OFFSET 24.5451 1.52588e-005 0
                    CHANNELS 3 Zrotation Xrotation Yrotation
                    End Site
                    {
                      OFFSET 0 0 0
                    }
                  }
                }
              }
            }
            JOINT Neck
            {
              OFFSET 5.0226 -0.0266342 0
              CHANNELS 3 Zrotation Xrotation Yrotation
              JOINT Head
              {
                OFFSET 6.69363 2.86102e-005 0
                CHANNELS 3 Zrotation Xrotation Yrotation
                End Site
                {
                  OFFSET 0 0 0
                }
              }
            }
          }
        }
      }
    }
  }
}
MOTION
Frames:	14
Frame Time:	0.0416667
-320.397 83.0224 -283.555 -91.2828 36.8695 -92.246 -166.884 15.4179 103.473 -63.2689 10.316 -2.79042 53.0488 -10.5329 -8.88641 131.435 -59.9704 -31.1699 178.733 30.1134 77.7755 40.9913 74.2329 -134.261 -16.4421 32.5076 33.766 -90.2615 48.6741 -12.1828 -14.1274 7.03903 -102.057 9.24273 -33.4957 -21.6381 -2.10943 -34.3945 -20.0513 -25.5367 -25.7172 -30.6389 -5.52402 -25.7172 -30.6389 -22.7503 -20.3037 121.897 135.554 -27.1214 -63.6229 5.62612 -10.0674 -126.457 124.272 48.2975 21.2544 167.608 -36.9702 -43.5796 -3.97571 -0.745937 -100.792 0.137932 31.1865 -23.358 2.05311 -2.61824 -63.8222 26.3297 -38.9608 -28.4868 3.46551 -31.425 -40.6165 
-320.81 82.8849 -284.019 -91.0317 36.8089 -91.9623 -166.665 15.4546 104.153 -63.2183 10.1659 -2.58058 52.5972 -10.763 -9.41973 129.18 -61.4235 -34.0483 178.926 30.8479 78.1487 37.3584 75.2794 -130.504 -16.6864 33.5276 34.1235 -91.0659 48.0086 -11.0812 -14.1249 7.07708 -102.065 9.15154 -33.4871 -21.6894 -2.20145 -34.3872 -20.1034 -25.6183 -25.6964 -30.6815 -5.60567 -25.6964 -30.6815 -22.7856 -20.5983 122.01 136.061 -27.1233 -63.3995 5.15951 -10.0098 -126.717 124.156 47.7487 20.9906 167.682 -36.647 -43.6859 -3.00404 -1.01522 -100.661 -0.286249 30.0302 -23.2255 2.09853 -2.62236 -63.3981 26.0333 -39.0855 -28.5932 3.63539 -31.6167 -40.3431 
-321.974 82.4767 -285.324 -90.3121 36.635 -91.1442 -166.045 15.5869 106.096 -63.037 9.86864 -1.99417 51.3334 -11.3357 -10.8316 122.043 -64.8405 -42.7493 179.459 32.9285 79.1794 36.7496 75.9054 -129.096 -16.6855 32.8924 33.9894 -93.424 45.7634 -7.7084 -14.1184 7.18692 -102.089 8.88736 -33.4654 -21.8389 -2.46904 -34.3716 -20.2555 -25.8539 -25.6374 -30.8057 -5.84124 -25.6374 -30.8057 -22.9372 -21.4662 122.316 137.522 -27.0788 -62.7199 3.8574 -9.81834 -127.435 123.735 46.2006 20.2942 167.859 -35.7659 -43.9969 0.0130925 -1.73296 -100.222 -1.40325 26.4964 -23.0259 2.25933 -2.6473 -62.1484 25.1794 -39.4413 -28.9077 4.11395 -32.1573 -39.5659 
-323.758 81.7864 -287.314 -89.1967 36.3645 -89.7841 -165.09 15.9066 109.185 -62.687 9.83475 -1.10852 49.4655 -12.0026 -12.7042 109.604 -68.2966 -57.1444 -179.768 36.099 80.7136 33.5206 77.3065 -124.35 -16.5876 31.763 34.1219 -97.1489 40.8914 -1.69792 -14.245 7.76476 -102.347 7.47449 -33.7643 -22.9527 -3.89318 -34.7175 -21.3616 -27.1077 -25.6328 -31.8892 -7.09507 -25.6328 -31.8892 -15.5692 -23.3163 126.702 141.118 -24.5123 -65.5524 2.25372 -11.2017 -128.607 122.616 43.9248 19.5053 169.755 -33.5 -43.7834 8.89698 -3.63745 -103.931 -2.97512 18.4034 -23.1917 2.56092 -2.69993 -60.0402 24.5581 -38.5178 -30.4009 4.24269 -31.2829 -38.5774 
-326.019 80.7891 -289.818 -87.8192 36.0101 -87.7158 -163.926 16.5696 113.44 -62.2234 10.6342 0.00880331 47.3108 -12.5352 -14.5571 93.5248 -70.2445 -75.1695 -178.917 39.9803 82.6671 20.6234 79.734 -108.856 -15.9715 29.5328 35.0105 -101.165 30.6846 7.65841 -12.0205 2.91974 -98.2647 20.2221 -27.8937 -10.8538 8.84362 -28.3401 -9.52701 -15.2458 -23.34 -19.027 4.76689 -23.34 -19.027 -127.575 6.96384 87.682 130.667 -29.0326 11.2503 -6.77219 12.556 -121.414 123.08 40.341 17.1629 140.259 -44.9014 -58.948 -50.0172 39.7731 -43.0631 -1.80415 31.9318 -27.2024 3.9965 -3.25294 -57.1488 20.5713 -61.8367 -10.9005 14.5888 -59.6888 -38.2759 
-328.626 79.4585 -292.669 -86.2996 35.56 -84.8629 -162.775 17.6939 118.825 -61.7517 12.7135 1.25498 45.1999 -12.8446 -16.0356 77.5105 -70.317 -92.9154 -178.037 44.2188 84.7736 -30.5609 79.5374 -53.5163 -13.432 25.2921 37.7521 -102.159 6.73792 21.8247 -12.0919 3.14773 -98.3578 19.6904 -28.0811 -11.1794 8.31412 -28.5414 -9.84308 -15.7685 -23.425 -19.3892 4.24415 -23.425 -19.3892 -130.508 8.22841 87.6046 132.366 -28.226 13.0909 -9.86509 14.6538 -121.523 120.104 37.5053 16.789 140.116 -43.9166 -59.324 -39.1403 49.3403 -49.4136 -3.01388 17.4332 -29.149 5.1547 -3.50814 -53.162 16.9505 -63.355 -13.3306 15.2699 -61.0978 -37.0156 
-331.492 77.8117 -295.673 -84.668 35.0029 -81.4688 -161.86 19.2305 124.984 -61.2723 16.1921 2.46648 43.357 -13.0222 -16.9473 64.0597 -68.8495 -107.785 -177.213 48.9914 86.8738 -68.598 54.3065 -9.37854 -1.41016 20.2566 41.0203 -45.0655 -0.561526 82.0956 -12.1931 3.42847 -98.4775 19.0322 -28.3384 -11.5893 7.65929 -28.8161 -10.2399 -16.4175 -23.5526 -19.8523 3.59518 -23.5526 -19.8523 -134.653 9.72539 87.4535 134.186 -26.2297 15.4373 -12.7821 16.6516 -121.513 115.883 34.9194 16.9513 140.022 -42.8476 -59.6904 -0.234227 63.5075 -80.2277 -3.18598 -10.0039 -35.2969 6.84232 -3.75486 -47.5989 12.6635 -64.9311 -16.3778 15.8247 -62.6143 -35.8859 
-334.427 75.7755 -298.616 -82.9275 34.3488 -77.8672 -161.512 21.1587 131.554 -61.0527 19.595 3.49829 41.8561 -12.3108 -18.1269 53.6053 -66.1312 -119.297 -177.798 53.3845 90.7446 -68.7061 6.41879 -0.924898 21.1767 17.1698 28.4649 92.8955 -14.3184 24.6106 -12.3104 3.73129 -98.6153 18.316 -28.6335 -12.0518 6.94695 -29.1309 -10.6874 -17.1229 -23.7016 -20.3759 2.88974 -23.7016 -20.3759 -140.974 11.4935 87.1231 136.022 -21.9541 18.5354 -15.2408 18.3221 -121.458 110.4 32.7892 17.7803 140.011 -41.7261 -60.0172 79.5731 47.6717 -146.208 -7.79931 -54.0579 -51.0368 10.0718 -4.08008 -39.7478 7.7553 -66.4827 -20.0626 16.184 -64.1945 -35.0341 
-337.264 73.1098 -301.629 -81.0972 33.6177 -74.3181 -162.065 23.1956 138.557 -61.4755 24.3146 4.34209 41.2466 -12.2385 -18.6273 45.8919 -62.4063 -127.697 -177.425 54.9578 93.0578 -58.8838 -23.2119 1.41808 28.3003 17.9706 15.8114 74.9855 -38.4259 -36.7712 -12.4341 4.03206 -98.7584 17.5988 -28.9406 -12.5279 6.23363 -29.4582 -11.1479 -17.8285 -23.8586 -20.9154 2.18418 -23.8586 -20.9154 -151.15 13.6625 86.4963 137.561 -13.5898 22.6729 -17.0525 19.472 -121.461 103.785 31.1324 19.3134 140.08 -40.6093 -60.2916 108.46 10.6855 -157.782 -113.095 -76.9876 -171.644 16.1134 -4.4681 -30.8056 2.16671 -67.9432 -24.4669 16.2916 -65.8137 -34.6056 
-340.111 69.9653 -304.694 -79.2123 32.8338 -70.9915 -163.144 24.8092 145.668 -61.9091 29.4971 4.99076 41.2958 -12.5522 -18.8968 40.4601 -58.0492 -133.469 -175.127 53.6225 92.6215 -43.165 -33.6648 1.8326 25.6011 20.9497 14.7883 57.2039 -37.3774 -56.0798 -12.5599 4.31593 -98.8931 16.9181 -29.2453 -12.9794 5.55705 -29.782 -11.5839 -18.4989 -24.0206 -21.4313 1.51381 -24.0206 -21.4312 -166.819 16.3881 85.6207 137.914 0.641555 28.0355 -18.11 19.8904 -121.635 96.2916 29.812 21.4773 140.208 -39.5786 -60.5055 118.867 -6.57309 -156.562 -113.774 -39.1096 179.722 23.3877 -4.18271 -21.7742 -4.25632 -69.2363 -29.7301 16.069 -67.4503 -34.7596 
-343.008 66.4015 -307.803 -77.3177 32.0213 -67.9912 -164.297 25.7791 152.6 -61.9671 34.6509 5.46504 41.8865 -13.119 -19.1798 36.7401 -53.5051 -137.238 -172.201 45.9903 90.8267 -16.2948 -36.8203 0.709089 14.8006 24.9501 22.2577 47.8221 -34.3501 -65.7493 -12.6871 4.57595 -99.0076 16.2949 -29.5414 -13.3759 4.9381 -30.0949 -11.9652 -19.1164 -24.1904 -21.8938 0.896241 -24.1904 -21.8938 171.531 19.6125 84.7636 135.273 21.3108 35.3756 -18.3041 19.1558 -122.136 88.2794 28.6201 24.0878 140.377 -38.7187 -60.6473 120.147 -7.63688 -156.126 -105.606 -21.2474 179.911 30.8842 -1.65364 -13.0423 -11.6382 -70.2656 -35.9502 15.3935 -69.0759 -35.6744 
-345.968 62.5312 -311.001 -75.4604 31.1987 -65.3718 -164.961 26.0942 159.047 -61.1279 39.6126 5.80112 42.7798 -13.9791 -19.6135 34.2125 -49.1665 -139.598 -170.008 45.3422 88.4541 -5.41661 -36.1856 0.0132903 11.3914 25.4578 26.1439 41.9045 -31.4587 -71.7429 -12.8166 4.81021 -99.0926 15.7371 -29.8268 -13.6958 4.38517 -30.3937 -12.2701 -19.6758 -24.3716 -22.2829 0.336871 -24.3716 -22.2829 146.795 22.5735 83.7702 124.645 45.8025 48.6468 -17.2119 15.6485 -123.365 80.1304 27.3677 26.8952 140.569 -38.1036 -60.7068 117.304 -1.76723 -156.649 -93.486 13.838 179.561 39.7487 12.7604 -14.3299 -19.953 -70.9246 -43.0771 14.096 -70.6561 -37.5448 
-348.968 58.5663 -314.282 -73.6826 30.3788 -63.1498 -164.643 25.9838 164.677 -58.8278 44.2536 6.02627 43.6034 -15.1845 -20.3553 32.4867 -45.2933 -141.014 -167.681 50.0552 85.1816 -7.36855 -34.9732 -0.374797 14.6177 25.3683 25.7411 37.8688 -28.9883 -75.8185 -12.9488 5.02044 -99.1416 15.245 -30.1001 -13.925 3.89849 -30.6764 -12.4846 -20.1789 -24.5668 -22.5858 -0.166259 -24.5668 -22.5858 136.988 21.5055 75.5755 99.0283 64.1193 72.5707 -12.4927 1.5359 -127.115 71.943 25.8821 29.7059 140.754 -37.7939 -60.6832 113.114 6.42004 -156.965 -74.1483 -60.2986 -170.384 45.3274 3.6104 3.98912 -28.9599 -71.1181 -50.8499 11.9627 -72.1515 -40.5862 
-351.943 54.7326 -317.581 -72.0187 29.5723 -61.3197 -163.106 25.7859 169.242 -54.6726 48.4561 6.13503 43.9975 -16.786 -21.5566 31.3035 -42.0187 -141.809 -165.214 53.3697 81.621 -8.4327 -33.3855 -1.03098 16.8083 25.4943 25.8544 35.0155 -26.9649 -78.7062 -13.1385 5.21823 -99.1311 14.8025 -30.4586 -14.0075 3.46587 -31.038 -12.5466 -20.6649 -24.8835 -22.7874 -0.652213 -24.8835 -22.7874 48.7523 8.47685 132.199 24.1949 1.80872 154.592 -17.5123 10.1389 -129.102 65.6938 24.4272 31.6045 141.442 -38.0987 -60.1878 107.857 15.2573 -156.106 -55.4146 -52.364 -156.551 51.7752 7.17129 9.78763 -50.1126 -72.7833 -69.4764 18.6899 -76.0266 -33.3802 
